Coordinates
version=1
nRows=18
nColumns=34
inDegrees=yes
inDegrees=no

Units are S.I. units (second, meters, Newtons, ...)
If the header above contains a line with 'inDegrees', this indicates whether rotational values are in degrees (yes) or radians (no).

endheader
time	pelvis_tilt	pelvis_list	pelvis_rotation	pelvis_tx	pelvis_ty	pelvis_tz	hip_flexion_r	hip_adduction_r	hip_rotation_r	knee_angle_r	ankle_angle_r	subtalar_angle_r	mtp_angle_r	hip_flexion_l	hip_adduction_l	hip_rotation_l	knee_angle_l	ankle_angle_l	subtalar_angle_l	mtp_angle_l	lumbar_extension	lumbar_bending	lumbar_rotation	arm_flex_r	arm_add_r	arm_rot_r	elbow_flex_r	pro_sup_r	arm_flex_l	arm_add_l	arm_rot_l	elbow_flex_l	pro_sup_l
10.133333 0.054944 0.044197 -0.082883 -0.011642 0.008351 -0.003574 1.546031 -0.036213 -0.287625 0.777681 -0.244478 0.049405 0.000000 1.549796 -0.167178 -0.394633 0.954906 0.062441 0.204863 0.000000 -0.900780 0.163997 -0.133598 0.210386 -0.203016 0.043094 1.651989 1.605776 1.936209 0.186759 0.711531 0.691038 1.330062
10.150000 0.074108 0.038834 -0.083694 -0.011644 0.008418 -0.003607 1.517155 -0.035073 -0.297127 0.762518 -0.262704 0.075382 0.000000 1.522226 -0.160697 -0.396416 0.941779 0.053657 0.181182 0.000000 -0.891757 0.174108 -0.182274 0.168140 -0.200543 0.087382 1.611417 1.635027 1.869047 0.149236 0.772126 0.700857 1.319856
10.166667 0.100568 0.034017 -0.082216 -0.011871 0.008356 -0.003646 1.477928 -0.032367 -0.300649 0.735979 -0.285264 0.083276 0.000000 1.497122 -0.149950 -0.387847 0.939208 0.046458 0.143435 0.000000 -0.891245 0.180610 -0.214437 0.107159 -0.209864 0.110511 1.600866 1.642221 1.798865 0.139755 0.791557 0.696115 1.316110
10.183333 0.121659 0.032990 -0.087307 -0.011902 0.008467 -0.003685 1.444027 -0.019725 -0.295183 0.706350 -0.312135 0.084428 0.000000 1.467434 -0.145810 -0.390180 0.919792 0.037239 0.129179 0.000000 -0.870862 0.183130 -0.267405 0.077743 -0.223941 0.170974 1.537679 1.662698 1.692445 0.093742 0.817498 0.731705 1.298250
10.200000 0.144612 0.031114 -0.099289 -0.012035 0.008638 -0.003659 1.397111 0.005159 -0.284452 0.657970 -0.348280 0.077217 0.000000 1.421757 -0.147713 -0.397162 0.883809 0.022694 0.126587 0.000000 -0.863432 0.180318 -0.297750 0.040384 -0.243114 0.211417 1.484366 1.674098 1.575500 0.071042 0.793152 0.760012 1.274790
10.216667 0.169635 0.024965 -0.111681 -0.012249 0.008591 -0.003691 1.355229 0.031152 -0.274223 0.599179 -0.391502 0.082484 0.000000 1.387293 -0.151520 -0.394810 0.865149 0.012366 0.119757 0.000000 -0.856664 0.178613 -0.329394 0.008695 -0.269741 0.259897 1.437454 1.677688 1.472491 0.039028 0.790412 0.779735 1.261078
10.233333 0.199463 0.023219 -0.134150 -0.012408 0.008483 -0.003711 1.320673 0.063594 -0.244321 0.543100 -0.440934 0.090724 0.000000 1.358822 -0.165667 -0.400845 0.841357 -0.010712 0.115271 0.000000 -0.851933 0.161438 -0.352598 -0.026129 -0.310950 0.306248 1.419847 1.672556 1.376173 0.007913 0.800445 0.804925 1.249336
10.250000 0.225586 0.022506 -0.159456 -0.012410 0.008425 -0.003757 1.295844 0.094127 -0.207907 0.509326 -0.481140 0.093016 0.000000 1.334996 -0.181186 -0.409972 0.823722 -0.026784 0.107022 0.000000 -0.836378 0.139220 -0.369964 -0.060836 -0.369203 0.364370 1.413534 1.658819 1.273342 -0.015359 0.781708 0.816763 1.232935
10.266667 0.250852 0.022835 -0.182322 -0.012541 0.008429 -0.003856 1.268807 0.114628 -0.172952 0.485063 -0.518350 0.099374 0.000000 1.307999 -0.190977 -0.417818 0.806777 -0.039152 0.104082 0.000000 -0.825360 0.119457 -0.379876 -0.100118 -0.435726 0.412712 1.427772 1.637511 1.189791 -0.041873 0.781662 0.836406 1.221596
10.283333 0.279514 0.026169 -0.197483 -0.012506 0.008488 -0.003862 1.235532 0.130000 -0.137917 0.479524 -0.519983 0.093664 0.000000 1.273164 -0.194817 -0.433844 0.792616 -0.044166 0.110836 0.000000 -0.813440 0.099373 -0.391486 -0.154819 -0.494611 0.433697 1.446797 1.625489 1.112846 -0.070467 0.783917 0.843242 1.216177
10.300000 0.310442 0.028601 -0.208030 -0.012700 0.008556 -0.003856 1.196896 0.141119 -0.098302 0.482956 -0.515617 0.074862 0.000000 1.222575 -0.191736 -0.453592 0.769589 -0.039316 0.120736 0.000000 -0.816611 0.081177 -0.396636 -0.187345 -0.552194 0.459818 1.477717 1.614607 1.062800 -0.107189 0.798119 0.853659 1.213398
10.316667 0.332407 0.027100 -0.202877 -0.012520 0.008576 -0.003837 1.172165 0.142988 -0.077802 0.488701 -0.489073 0.067150 0.000000 1.198178 -0.187060 -0.454620 0.775221 -0.034547 0.111308 0.000000 -0.800195 0.076931 -0.406853 -0.194722 -0.595102 0.462232 1.543467 1.603047 0.995443 -0.148941 0.797294 0.868634 1.208006
10.333333 0.351448 0.031022 -0.200274 -0.012666 0.008579 -0.003950 1.151377 0.135831 -0.060178 0.489567 -0.480151 0.067959 0.000000 1.173707 -0.173338 -0.463683 0.762650 -0.043313 0.094246 0.000000 -0.790037 0.066653 -0.404624 -0.171660 -0.639916 0.453884 1.622993 1.599391 0.955390 -0.175718 0.793420 0.865344 1.205797
10.350000 0.376456 0.019743 -0.211301 -0.012890 0.008706 -0.003843 1.126194 0.136870 -0.053549 0.525250 -0.428242 -0.025529 0.000000 1.122064 -0.176491 -0.459460 0.726424 -0.043951 0.105038 0.000000 -0.800941 0.061586 -0.375456 -0.148816 -0.674331 0.450024 1.683018 1.593034 0.924467 -0.216445 0.782591 0.893002 1.203447
10.366667 0.386400 0.014677 -0.200762 -0.013023 0.008609 -0.003804 1.121185 0.131511 -0.065530 0.493335 -0.433961 -0.024496 0.000000 1.126204 -0.172493 -0.441558 0.734809 -0.044617 0.083890 0.000000 -0.793372 0.055504 -0.354418 -0.140151 -0.686912 0.442291 1.718243 1.591044 0.917448 -0.255995 0.780922 0.893559 1.203596
10.383333 0.405784 0.002392 -0.196537 -0.013282 0.008605 -0.003870 1.108723 0.125391 -0.072310 0.489138 -0.453624 -0.078300 0.000000 1.104156 -0.166126 -0.428594 0.714955 -0.053748 0.069501 0.000000 -0.805001 0.059386 -0.320654 -0.123001 -0.716754 0.442608 1.782695 1.589324 0.934674 -0.298843 0.781347 0.901813 1.203622
10.400000 0.420107 -0.012298 -0.182066 -0.013277 0.008630 -0.003837 1.091292 0.126840 -0.094345 0.486855 -0.461995 -0.112720 0.000000 1.091080 -0.162492 -0.417755 0.709139 -0.056747 0.065402 0.000000 -0.811910 0.068691 -0.284215 -0.106618 -0.727323 0.439829 1.813583 1.587663 0.963117 -0.336350 0.778087 0.904973 1.202572
10.416667 0.439418 -0.009432 -0.150068 -0.013105 0.008674 -0.003939 1.062302 0.099585 -0.116952 0.452296 -0.480975 -0.082334 0.000000 1.078095 -0.131517 -0.412879 0.713471 -0.053107 0.064411 0.000000 -0.806227 0.079446 -0.262771 -0.091699 -0.732565 0.429577 1.837838 1.584905 0.972897 -0.358367 0.766308 0.901993 1.198731
